<svg width="19" height="19" viewBox="0 0 19 19" fill="none" xmlns="http://www.w3.org/2000/svg">
<circle cx="9.5" cy="9.5" r="9.5" fill="#7071E8"/>
<path d="M9.4996 15.6471C12.8945 15.6471 15.6467 12.895 15.6467 9.50009C15.6467 6.10516 12.8945 3.35303 9.4996 3.35303C6.10467 3.35303 3.35254 6.10516 3.35254 9.50009C3.35254 12.895 6.10467 15.6471 9.4996 15.6471Z" fill="#7071E8"/>
<path d="M9.4996 11.3442C10.5181 11.3442 11.3437 10.5186 11.3437 9.50009C11.3437 8.48161 10.5181 7.65597 9.4996 7.65597C8.48112 7.65597 7.65548 8.48161 7.65548 9.50009C7.65548 10.5186 8.48112 11.3442 9.4996 11.3442Z" fill="#7071E8"/>
<path d="M9.4996 15.6471C12.8945 15.6471 15.6467 12.895 15.6467 9.50009C15.6467 6.10516 12.8945 3.35303 9.4996 3.35303C6.10467 3.35303 3.35254 6.10516 3.35254 9.50009C3.35254 12.895 6.10467 15.6471 9.4996 15.6471Z" stroke="black" stroke-width="2" stroke-linecap="round" stroke-linejoin="round"/>
<path d="M9.4996 11.3442C10.5181 11.3442 11.3437 10.5186 11.3437 9.50009C11.3437 8.48161 10.5181 7.65597 9.4996 7.65597C8.48112 7.65597 7.65548 8.48161 7.65548 9.50009C7.65548 10.5186 8.48112 11.3442 9.4996 11.3442Z" stroke="black" stroke-width="2" stroke-linecap="round" stroke-linejoin="round"/>
</svg>
