<svg width="21" height="21" viewBox="0 0 21 21" fill="none" xmlns="http://www.w3.org/2000/svg">
<circle cx="10.5" cy="10.5" r="10.5" fill="#7071E8"/>
<path d="M8.41567 10.1811L9.80538 11.5541L12.9322 8.46484M16.0591 10.5243C16.0591 13.894 12.3388 16.3447 10.9852 17.1249C10.8314 17.2136 10.7545 17.2579 10.6459 17.2809C10.5617 17.2988 10.4388 17.2988 10.3545 17.2809C10.246 17.2579 10.1691 17.2136 10.0152 17.1249C8.66162 16.3447 4.94141 13.894 4.94141 10.5243V7.24123C4.94141 6.69237 4.94141 6.41794 5.03227 6.18204C5.11253 5.97365 5.24296 5.7877 5.41228 5.64028C5.60395 5.4734 5.86403 5.37704 6.3842 5.18432L10.1099 3.804C10.2543 3.75048 10.3265 3.72372 10.4009 3.71311C10.4668 3.7037 10.5337 3.7037 10.5996 3.71311C10.6739 3.72372 10.7461 3.75048 10.8906 3.804L14.6163 5.18432C15.1364 5.37704 15.3965 5.4734 15.5882 5.64028C15.7575 5.7877 15.8879 5.97365 15.9682 6.18204C16.0591 6.41794 16.0591 6.69237 16.0591 7.24123V10.5243Z" stroke="black" stroke-width="1.5" stroke-linecap="round" stroke-linejoin="round"/>
</svg>
