<svg width="20" height="20" viewBox="0 0 20 20" fill="none" xmlns="http://www.w3.org/2000/svg">
<circle cx="10" cy="10" r="10" fill="#7071E8"/>
<path d="M10.0005 16.4708C12.2746 16.4708 14.1181 14.5302 14.1181 12.1364C14.1181 9.74259 12.2746 7.80203 10.0005 7.80203C7.72635 7.80203 5.88281 9.74259 5.88281 12.1364C5.88281 14.5302 7.72635 16.4708 10.0005 16.4708Z" fill="#7071E8"/>
<path d="M7.1187 9.04042H7.05928V7.80203C7.05928 6.09217 8.37609 4.70605 10.0005 4.70605C11.6248 4.70605 12.9416 6.09217 12.9416 7.80203V9.04042H12.8822M10.0005 11.5172V12.7556M14.1181 12.1364C14.1181 14.5302 12.2746 16.4708 10.0005 16.4708C7.72635 16.4708 5.88281 14.5302 5.88281 12.1364C5.88281 9.74259 7.72635 7.80203 10.0005 7.80203C12.2746 7.80203 14.1181 9.74259 14.1181 12.1364Z" stroke="black" stroke-width="1.5" stroke-linecap="round" stroke-linejoin="round"/>
</svg>
