<?xml version="1.0" encoding="UTF-8"?>
<svg id="Layer_1" data-name="Layer 1" xmlns="http://www.w3.org/2000/svg" viewBox="0 0 978 308.65">
  <defs>
    <style>
      .cls-1 {
        fill: #fff;
        stroke-width: 0px;
      }
    </style>
  </defs>
  <path class="cls-1" d="m516.24,198.86c-5.7-3.95-12.83-5.92-21.38-5.92h-.82c-8.56,0-15.65,1.97-21.28,5.92-5.65,3.93-9.88,9.61-12.74,17-.49,1.29-.95,2.62-1.34,4.02-.39-1.4-.83-2.72-1.29-4.02-2.72-7.38-6.91-13.07-12.54-17-5.63-3.95-12.73-5.92-21.28-5.92h-.82c-8.56,0-15.62,1.97-21.18,5.92-5.56,3.93-9.75,9.61-12.52,17-.65,1.74-1.24,3.57-1.74,5.48v-25.13h-15.48v108.78h19.55v-65.19c0-9.08,2.45-16.2,7.33-21.28,4.9-5.09,11.35-7.64,19.36-7.64s13.78,2.42,18.12,7.23c4.36,4.83,6.53,11.65,6.53,20.48v66.4h19.55v-65.19c0-9.08,2.45-16.2,7.33-21.28,4.88-5.09,11.33-7.64,19.34-7.64s13.8,2.42,18.14,7.23c4.34,4.83,6.52,11.65,6.52,20.48v66.4h19.56v-62.13c0-10.6-1.4-19.58-4.18-27-2.77-7.38-7.03-13.07-12.73-17Z"/>
  <path class="cls-1" d="m610.54,198.97c-7.06-2.65-16.16-3.98-27.29-3.98-3.27,0-6.65.03-10.19.1-3.52.07-6.96.2-10.28.41-3.33.2-6.5.44-9.48.71v17.11c2.98-.27,6.52-.48,10.58-.61,4.08-.14,8.35-.27,12.84-.41,4.47-.14,8.83-.2,13.03-.2,7.47,0,13.13,1.91,17.01,5.7,3.86,3.81,5.8,9.44,5.8,16.91v2.65h-27.49c-9.37,0-17.39,1.33-24.04,3.96-6.65,2.65-11.72,6.55-15.18,11.72-3.47,5.15-5.19,11.6-5.19,19.34s1.58,13.85,4.78,19.16c3.18,5.29,7.74,9.34,13.64,12.11,5.9,2.79,12.93,4.17,21.08,4.17,7.6,0,14.09-1.34,19.46-4.07,5.36-2.72,9.58-6.69,12.62-11.91,1.48-2.52,2.67-5.32,3.57-8.42v21.55h15.48v-68.85c0-10.19-1.7-18.27-5.1-24.24-3.39-5.97-8.62-10.29-15.69-12.93Zm-2.53,82.29c-2.79,4-6.29,6.86-10.5,8.56-4.2,1.7-8.63,2.53-13.24,2.53-7.88,0-13.92-1.82-18.13-5.5-4.2-3.66-6.31-8.49-6.31-14.46s2.11-10.85,6.31-14.66c4.22-3.79,10.26-5.7,18.13-5.7h28.31v12.62c-.27,7.06-1.8,12.61-4.58,16.6Z"/>
  <path class="cls-1" d="m702.4,192.94h-.82c-9.08,0-16.62,1.94-22.61,5.82-5.97,3.86-10.41,9.51-13.34,16.91-.73,1.87-1.38,3.84-1.94,5.94v-25.4h-15.48v108.78h19.56v-64.99c0-8.81,2.65-15.89,7.94-21.18,5.29-5.29,12.21-7.94,20.77-7.94s14.8,2.55,19.56,7.64c4.75,5.09,7.13,11.86,7.13,20.28v66.2h19.55v-62.13c0-16.16-3.3-28.51-9.88-37.07-6.58-8.56-16.72-12.84-30.45-12.84Z"/>
  <path class="cls-1" d="m842.96,212.61c-4.22-6.65-9.51-11.62-15.89-14.87-6.79-3.47-14.32-5.19-22.61-5.19s-15.04,1.45-21.49,4.37-12.03,6.96-16.71,12.11c-4.68,5.17-8.32,11.14-10.9,17.93-2.57,6.79-3.86,14.05-3.86,21.79v3.67c0,7.88,1.33,15.21,3.96,22,2.65,6.79,6.4,12.76,11.21,17.91,4.81,5.17,10.5,9.17,17.01,12.03,6.52,2.86,13.64,4.27,21.38,4.27s15.52-1.72,22.51-5.19c6.99-3.47,12.79-9.03,17.42-16.71.73-1.21,1.41-2.48,2.02-3.81v22.05h15.48v-148.7h-19.55v56.33Zm.82,41.65c0,7.62-1.63,14.24-4.9,19.87-3.25,5.63-7.6,9.95-13.03,12.93-5.43,2.99-11.47,4.49-18.12,4.49-7.08,0-13.39-1.67-18.95-5-5.56-3.32-9.92-8.08-13.03-14.26-3.13-6.18-4.7-13.41-4.7-21.69s1.53-15.48,4.59-21.59c3.05-6.11,7.33-10.87,12.83-14.26,5.49-3.4,11.84-5.1,19.05-5.1,6.52,0,12.52,1.39,18.02,4.18,5.51,2.77,9.92,6.79,13.24,12.01,3.33,5.24,5,11.59,5,19.05v9.36Z"/>
  <path class="cls-1" d="m978,245.51c0-9.1-1.87-17.66-5.6-25.67-3.74-8.01-9.44-14.56-17.11-19.65-7.67-5.1-17.42-7.64-29.23-7.64-9.1,0-17.01,1.58-23.73,4.78-6.72,3.2-12.25,7.47-16.6,12.83-4.34,5.38-7.57,11.38-9.66,18.03-2.11,6.65-3.16,13.51-3.16,20.57v3.67c0,6.92,1.05,13.71,3.16,20.36,2.09,6.65,5.32,12.66,9.66,18.03,4.36,5.36,9.99,9.66,16.91,12.93,6.92,3.27,15.14,4.88,24.65,4.88,8.56,0,16.23-1.41,23.02-4.27,6.79-2.86,12.42-6.99,16.91-12.42,4.47-5.44,7.47-11.89,8.95-19.36h-18.32c-1.09,5.02-4.32,9.44-9.68,13.24-5.36,3.81-12.32,5.72-20.87,5.72s-14.87-1.8-20.16-5.41c-5.31-3.59-9.2-8.47-11.72-14.66-2.11-5.19-3.33-10.92-3.66-17.22h86.25v-8.74Zm-85.47-5.92c.63-3.64,1.58-7.03,2.88-10.17,2.52-6.11,6.31-10.94,11.42-14.46,5.09-3.54,11.5-5.31,19.24-5.31s13.64,1.57,18.54,4.7c4.88,3.11,8.54,7.5,10.99,13.13,1.57,3.61,2.64,7.64,3.2,12.11h-66.26Z"/>
  <circle class="cls-1" cx="241.4" cy="37.23" r="35.95"/>
  <path class="cls-1" d="m216.11,88.06s-5.09,10.04-43.16,77.9c-1.79,3.16-3.59,6.04-5.43,8.59-.17-.2-.31-.43-.46-.63-1.67-2.4-3.33-5.05-4.97-7.96-38.07-67.86-43.16-77.9-43.16-77.9h-47.36L0,307.01s57.89,13.68,73.68-37.9c15.79-51.58,30.52-96.83,30.52-96.83,0,0,31.93,86.46,79.38,61.13,11.89-6.35,24.75-19.68,38.35-43.19.34-.66.68-1.33,1-1.97,4.51-8.85,7.91-15.96,7.91-15.96,0,0,14.73,45.27,30.52,96.85,15.79,51.56,73.68,37.89,73.68,37.89l-71.57-218.95h-47.36Z"/>
  <circle class="cls-1" cx="99.22" cy="35.95" r="35.95" transform="translate(-6.21 40.71) rotate(-22.5)"/>
</svg>