<svg width="35" height="35" viewBox="0 0 35 35" fill="none" xmlns="http://www.w3.org/2000/svg">
<path d="M11.3778 21.1942V18.2912C11.3778 17.8804 11.3778 17.4696 11.3778 17.074C11.3778 16.9797 11.3778 16.8884 11.3778 16.7941C11.3778 16.6998 11.4325 16.3681 11.3778 16.6754C11.396 16.5689 11.4143 16.4655 11.4386 16.3711C11.4821 16.1641 11.5411 15.9607 11.6151 15.7625C11.5147 16.0212 11.6151 15.7625 11.6425 15.7321C11.7186 15.5921 11.7886 15.4552 11.8646 15.3213C12.0168 15.0505 11.9286 15.2209 11.8829 15.2787C11.9468 15.1996 12.0107 15.1174 12.0776 15.0414C12.1446 14.9653 12.248 14.8557 12.3393 14.7675C12.5219 14.591 12.172 14.8861 12.3759 14.7371C12.5543 14.606 12.7414 14.4871 12.9358 14.381C12.8749 14.4175 12.668 14.4723 12.9358 14.381L13.3222 14.2624C13.6022 14.238 13.3922 14.241 13.3222 14.2624C13.4165 14.2624 13.5078 14.2624 13.6022 14.2624C13.6965 14.2624 13.7969 14.2624 13.8912 14.2806C13.6295 14.241 13.8912 14.2806 13.9339 14.311C14.3096 14.4446 14.655 14.6515 14.9502 14.9196C15.0273 14.9967 15.1003 15.0758 15.1693 15.157C15.2058 15.2026 15.4097 15.4795 15.2667 15.2696C15.3804 15.4535 15.4821 15.6446 15.5709 15.8417C15.5892 15.8782 15.6866 16.1459 15.6014 15.8994C15.6379 16.0029 15.6714 16.1094 15.7018 16.2038C15.7322 16.2981 15.7474 16.4228 15.7779 16.5324C15.8661 16.8641 15.8053 16.4624 15.8113 16.7089C15.8113 17.1106 15.8113 17.5153 15.8113 17.9261V21.2429C15.8113 22.1253 16.5112 22.9683 17.3328 22.9287C17.7549 22.8983 18.149 22.7059 18.4325 22.3917C18.716 22.0775 18.8672 21.6659 18.8543 21.2429V17.8774C18.8649 17.3013 18.8405 16.7251 18.7812 16.152C18.6285 14.8323 18.0716 13.592 17.1868 12.6009C15.3275 10.5773 12.5432 10.3035 10.474 12.0714C8.93427 13.386 8.28613 15.3456 8.28613 17.4453V21.1942C8.28613 22.0767 8.98905 22.9195 9.80762 22.88C10.2384 22.8617 10.6446 22.6747 10.9385 22.3592C11.2323 22.0437 11.3901 21.6252 11.3778 21.1942Z" fill="#6C63FF"/>
<path d="M17.6363 22.9896C18.0696 22.9817 18.4822 22.8022 18.7835 22.4905C19.1721 22.0938 19.3905 21.561 19.392 21.0056V17.3023C19.392 17.1076 19.392 16.9128 19.392 16.7181V16.6937C19.3995 16.6728 19.4056 16.6515 19.4103 16.6298C19.4255 16.572 19.4407 16.5112 19.4529 16.4533C19.4651 16.3955 19.4742 16.356 19.4864 16.3073C19.4985 16.2586 19.5229 16.1795 19.5442 16.1156L19.5624 16.073L19.6203 15.9421C19.6902 15.8082 19.7541 15.6804 19.8241 15.5648C19.8469 15.5407 19.8683 15.5153 19.888 15.4887C19.9093 15.4583 19.9337 15.4309 19.9458 15.4157C20.0067 15.3427 20.0706 15.2727 20.1375 15.2027C20.3993 14.9822 20.701 14.8138 21.0261 14.7067H21.0626H21.1022H21.2208C21.2806 14.7037 21.3406 14.7037 21.4004 14.7067L21.7534 14.8163C21.911 14.9076 22.0625 15.0093 22.2068 15.1205C22.2768 15.1905 22.3589 15.2727 22.435 15.3609C22.511 15.4492 22.5354 15.4766 22.581 15.5374V15.5648C22.6297 15.65 22.6754 15.7352 22.721 15.8235L22.8215 16.0213L22.8458 16.0699C22.8853 16.1917 22.9249 16.3316 22.9614 16.4959C22.9614 16.5507 22.9857 16.6055 22.9949 16.6603C22.9934 16.6816 22.9934 16.7029 22.9949 16.7242C22.9949 16.7698 22.9949 16.8246 22.9949 16.855C22.9949 16.9372 22.9949 17.0193 22.9949 17.0984C22.9949 17.4028 22.9949 17.6614 22.9949 17.9353V21.0026C22.9833 21.5007 23.1635 21.9843 23.4981 22.3535C23.8328 22.7226 24.2964 22.9493 24.7933 22.9866C25.0198 22.9934 25.2452 22.9525 25.455 22.8665C25.6646 22.7806 25.8539 22.6514 26.0104 22.4875C26.3991 22.0908 26.6175 21.558 26.619 21.0026V17.4453C26.619 15.1266 25.8492 13.24 24.3855 11.9924C22.2859 10.197 19.3555 10.4253 17.4233 12.531C16.516 13.5425 15.9459 14.8112 15.7922 16.1612C15.733 16.7252 15.7086 17.2923 15.7192 17.8592V21.0056C15.707 21.5036 15.887 21.9873 16.2218 22.3561C16.5567 22.725 17.0207 22.9507 17.5176 22.9866L17.6363 22.9896ZM18.5735 16.7576C18.5735 16.9372 18.5735 17.1198 18.5735 17.3023V21.0056C18.5683 21.3253 18.4396 21.6306 18.2144 21.8576C18.1375 21.9419 18.0433 22.0087 17.9383 22.0533C17.8333 22.098 17.7199 22.1194 17.6058 22.1163C17.3273 22.0982 17.067 21.9719 16.8804 21.7644C16.6939 21.5568 16.596 21.2844 16.6077 21.0056V17.8531C16.5976 17.3218 16.6189 16.7904 16.6716 16.2616C16.8048 15.0966 17.296 14.0016 18.0775 13.1274C19.7268 11.329 22.1216 11.1373 23.9017 12.6588C25.4962 14.019 25.8309 16.006 25.8309 17.4393V21.0026C25.8288 21.3238 25.6997 21.6312 25.4718 21.8576C25.3944 21.941 25.3001 22.007 25.1951 22.0511C25.0902 22.0952 24.977 22.1164 24.8633 22.1132C24.5848 22.0952 24.3244 21.9689 24.1379 21.7613C23.9513 21.5537 23.8535 21.2814 23.8652 21.0026V17.9079C23.8652 17.632 23.8652 17.3551 23.8652 17.0771C23.8652 16.9646 23.8652 16.8733 23.8652 16.7729C23.8652 16.7424 23.8652 16.6694 23.8469 16.6085C23.8287 16.4929 23.8073 16.3803 23.78 16.2677C23.7324 16.0379 23.6673 15.8121 23.5852 15.5922C23.5852 15.5557 23.5518 15.5222 23.5456 15.507L23.4696 15.364C23.4209 15.2727 23.3722 15.1814 23.3205 15.0901L23.2444 14.9562C23.2089 14.8973 23.1636 14.8448 23.1105 14.801L23.0557 14.7402C22.9644 14.6336 22.8701 14.5363 22.7697 14.4359C22.7453 14.4114 22.7188 14.389 22.6906 14.3689C22.578 14.2868 22.4624 14.2077 22.3376 14.1316C22.2799 14.0687 22.2063 14.0225 22.1246 13.9977H22.082L22.0151 13.9764L21.6286 13.8577C21.5309 13.8244 21.427 13.8129 21.3243 13.8242H21.2208C21.1048 13.8251 20.989 13.8333 20.8739 13.8486C20.8325 13.8574 20.7917 13.8696 20.7522 13.8851C20.3132 14.0323 19.9092 14.2685 19.5655 14.5789C19.4803 14.6611 19.4012 14.7493 19.3251 14.8375L19.2399 14.9471L19.2034 14.9958C19.0911 15.1721 18.9895 15.3551 18.8991 15.5435L18.8656 15.6165C18.8475 15.6522 18.8312 15.6888 18.8169 15.7261C18.7743 15.8387 18.7408 15.9573 18.7074 16.076L18.6891 16.146H18.6404L18.5735 16.5781C18.5637 16.6376 18.5637 16.6982 18.5735 16.7576Z" fill="#6C63FF"/>
<path d="M17.5 35C14.0387 35 10.6551 33.9738 7.7772 32.0504C4.89925 30.1275 2.65625 27.3942 1.33183 24.1963C0.00737129 20.9984 -0.338992 17.4796 0.336483 14.0848C1.01196 10.6901 2.67897 7.57186 5.12669 5.1246C7.57442 2.67726 10.6929 1.01081 14.0878 0.335902C17.4826 -0.33901 21.0014 0.00798913 24.1991 1.33301C27.3967 2.658 30.1296 4.90149 32.0521 7.77975C33.9748 10.658 35.0007 14.0417 35 17.5031C34.9944 22.1423 33.1486 26.59 29.8679 29.8701C26.5872 33.1504 22.1393 34.9951 17.5 35ZM17.5 3.96192C14.8199 3.96132 12.1998 4.75551 9.97105 6.24408C7.74234 7.73262 6.00509 9.84869 4.97902 12.3246C3.95298 14.8005 3.68419 17.5251 4.2067 20.1539C4.72921 22.7825 6.01948 25.1972 7.91439 27.0926C9.8093 28.9879 12.2237 30.2788 14.8523 30.802C17.4809 31.3251 20.2055 31.0566 22.6817 30.0313C25.1579 29.0058 27.2743 27.269 28.7633 25.0406C30.2524 22.8122 31.0471 20.1923 31.0471 17.5122C31.0456 13.9186 29.6182 10.4725 27.0783 7.93032C24.5384 5.38816 21.0936 3.95762 17.5 3.95279V3.96192Z" fill="#6C63FF"/>
</svg>
